<svg id="Capa_1" xmlns="http://www.w3.org/2000/svg" viewBox="0 0 16 16"><defs><style>.cls-1{stroke-width:0}</style></defs><path class="cls-1" d="M5.17 9.2c-.28 0-.5.22-.5.5v2.84c0 .28.22.5.5.5s.5-.22.5-.5V9.7c0-.28-.22-.5-.5-.5Z"/><path class="cls-1" d="M14.29 6.38s-.09 0-.14-.01h-.01l-.2-1.83a3.666 3.666 0 0 0-2.71-3.15C10.96.65 10.26.12 9.43.12H6.5c-.82.02-1.51.57-1.76 1.31a3.69 3.69 0 0 0-2.66 3.11l-.2 1.83c-.42.03-.82.17-1.12.47a1.673 1.673 0 0 0-.48 1.38l.83 6.25c.11.81.8 1.42 1.62 1.42h10.52c.82 0 1.52-.61 1.62-1.42l.83-6.25c.12-.89-.52-1.72-1.42-1.83Zm-7.7-5.26h2.84c.51 0 .92.41.92.92s-.41.92-.92.92H6.58c-.54.03-.93-.39-.94-.9v-.04c.03-.08.05-.16.04-.24.11-.37.45-.65.91-.66ZM3.08 4.65c.11-.97.74-1.78 1.61-2.15a1.916 1.916 0 0 0 1.85 1.46h2.89c.91 0 1.68-.64 1.87-1.5.89.37 1.54 1.2 1.65 2.19l.19 1.72H2.89l.19-1.72Zm10.81 9.68c-.04.32-.31.55-.63.55H2.74c-.32 0-.59-.24-.63-.55l-.83-6.34c0-.17.07-.33.19-.45s.28-.18.45-.18h12.25c.35.05.59.37.55.71l-.83 6.25Z"/><path class="cls-1" d="M8.01 9.2c-.28 0-.5.22-.5.5v2.84c0 .28.22.5.5.5s.5-.22.5-.5V9.7c0-.28-.22-.5-.5-.5Zm2.84 0c-.28 0-.5.22-.5.5v2.84c0 .28.22.5.5.5s.5-.22.5-.5V9.7c0-.28-.22-.5-.5-.5Z"/></svg>