<svg width="51" height="51" fill="none" xmlns="http://www.w3.org/2000/svg"><path d="M25.407 47.813c12.375 0 22.406-10.032 22.406-22.406C47.813 13.032 37.781 3 25.407 3 13.032 3 3 13.032 3 25.407s10.032 22.406 22.407 22.406Z" fill="#fff"/><path d="M25.407 49.313c13.203 0 23.906-10.703 23.906-23.906C49.313 12.203 38.61 1.5 25.407 1.5 12.203 1.5 1.5 12.203 1.5 25.407c0 13.203 10.703 23.906 23.907 23.906Z" stroke="#fff" stroke-opacity=".34" stroke-width="3"/><path d="m20.19 15.805 13.638 8.925a.808.808 0 0 1 0 1.351L20.19 35.004a.806.806 0 0 1-1.25-.676V16.486a.806.806 0 0 1 1.25-.681Z" fill="#5272F4"/></svg>