<svg width="310" height="53" fill="none" xmlns="http://www.w3.org/2000/svg"><path d="M37.463 11.982h12.202v21.925H37.463V11.982Z" fill="#FF5F00"/><path d="M29.212 43.94v-2.325c0-.89-.543-1.471-1.472-1.471-.465 0-.969.154-1.317.658-.271-.426-.659-.658-1.24-.658-.387 0-.774.116-1.084.542v-.465h-.814v3.719h.814v-2.053c0-.659.348-.969.89-.969.543 0 .814.349.814.969v2.053h.814v-2.053c0-.659.387-.969.89-.969.543 0 .814.349.814.969v2.053h.89Zm12.047-3.719h-1.317v-1.123h-.814v1.123h-.736v.736h.736v1.704c0 .853.349 1.356 1.279 1.356a2.17 2.17 0 0 0 1.007-.271l-.233-.697a1.274 1.274 0 0 1-.697.193c-.387 0-.542-.232-.542-.62v-1.665h1.317v-.736Zm6.895-.078c-.465 0-.775.233-.969.543v-.465h-.813v3.719h.813v-2.092c0-.62.271-.968.775-.968.155 0 .349.038.504.077l.232-.775c-.155-.038-.387-.038-.542-.038Zm-10.42.388c-.388-.271-.93-.387-1.511-.387-.93 0-1.55.464-1.55 1.2 0 .62.465.969 1.279 1.085l.387.039c.426.077.659.193.659.387 0 .271-.31.465-.852.465a2.14 2.14 0 0 1-1.24-.387l-.387.62c.426.31 1.007.464 1.588.464 1.084 0 1.704-.503 1.704-1.2 0-.66-.503-1.008-1.278-1.124l-.388-.039c-.348-.039-.62-.116-.62-.348 0-.271.272-.426.698-.426.465 0 .93.193 1.162.31l.349-.66Zm21.615-.387c-.465 0-.775.232-.969.542v-.465h-.813v3.719h.813v-2.092c0-.62.271-.968.775-.968.155 0 .349.038.503.077l.233-.775c-.155-.038-.387-.038-.542-.038ZM48.967 42.08c0 1.124.775 1.937 1.976 1.937.542 0 .93-.116 1.317-.426l-.388-.658c-.31.232-.62.348-.968.348-.659 0-1.123-.465-1.123-1.2 0-.698.465-1.163 1.123-1.202.349 0 .658.117.968.35l.388-.66c-.388-.31-.775-.425-1.317-.425-1.201 0-1.976.813-1.976 1.936Zm7.515 0v-1.859h-.813v.465c-.272-.349-.659-.542-1.162-.542-1.046 0-1.86.813-1.86 1.936 0 1.124.814 1.937 1.86 1.937.542 0 .93-.194 1.162-.542v.465h.813v-1.86Zm-2.983 0c0-.658.426-1.2 1.124-1.2.658 0 1.123.503 1.123 1.2 0 .659-.465 1.201-1.123 1.201-.698-.039-1.124-.542-1.124-1.2Zm-9.722-1.936c-1.085 0-1.86.774-1.86 1.936s.775 1.937 1.898 1.937c.543 0 1.085-.155 1.511-.503l-.387-.581c-.31.232-.698.387-1.085.387-.504 0-1.007-.233-1.123-.891h2.75v-.31c.039-1.2-.658-1.975-1.704-1.975Zm0 .697c.503 0 .852.31.93.89h-1.938c.078-.503.427-.89 1.008-.89Zm20.181 1.24v-3.332h-.813v1.937c-.272-.349-.659-.542-1.163-.542-1.045 0-1.859.813-1.859 1.936 0 1.124.814 1.937 1.86 1.937.542 0 .93-.194 1.162-.542v.465h.813v-1.86Zm-2.983 0c0-.66.426-1.202 1.124-1.202.658 0 1.123.504 1.123 1.201 0 .659-.465 1.201-1.123 1.201-.697-.039-1.123-.542-1.123-1.2Zm-27.192 0v-1.86h-.814v.465c-.271-.349-.658-.542-1.162-.542-1.046 0-1.86.813-1.86 1.936 0 1.124.814 1.937 1.86 1.937.543 0 .93-.194 1.162-.542v.465h.814v-1.86Zm-3.022 0c0-.66.426-1.202 1.123-1.202.659 0 1.124.504 1.124 1.201 0 .659-.465 1.201-1.124 1.201-.697-.039-1.123-.542-1.123-1.2Z" fill="#000"/><path d="M38.238 22.945c0-4.455 2.091-8.406 5.306-10.962A13.859 13.859 0 0 0 34.945 9C27.236 9 21 15.236 21 22.945c0 7.709 6.236 13.945 13.945 13.945a13.86 13.86 0 0 0 8.6-2.983 13.924 13.924 0 0 1-5.307-10.962Z" fill="#EB001B"/><path d="M66.127 22.945c0 7.709-6.236 13.945-13.945 13.945a13.858 13.858 0 0 1-8.599-2.983 13.866 13.866 0 0 0 5.307-10.962c0-4.455-2.092-8.406-5.307-10.962A13.859 13.859 0 0 1 52.183 9c7.708 0 13.944 6.275 13.944 13.945Z" fill="#F79E1B"/><path d="M154.031 23.074c-.035 2.647 2.405 4.124 4.243 5.002 1.888.9 2.522 1.479 2.515 2.284-.015 1.234-1.507 1.778-2.903 1.799-2.436.037-3.852-.645-4.978-1.16l-.877 4.026c1.129.51 3.221.956 5.39.975 5.092 0 8.423-2.465 8.441-6.286.02-4.85-6.841-5.119-6.794-7.286.016-.658.656-1.36 2.058-1.538.693-.09 2.608-.159 4.78.822l.852-3.896c-1.168-.417-2.669-.816-4.537-.816-4.792 0-8.163 2.498-8.19 6.074Zm20.915-5.738a2.21 2.21 0 0 0-2.063 1.348l-7.273 17.03h5.088l1.013-2.744h6.217l.587 2.744H183l-3.913-18.378h-4.141Zm.712 4.964 1.469 6.901h-4.022l2.553-6.9Zm-27.796-4.964-4.011 18.378h4.848l4.009-18.379h-4.846m-7.173 0-5.047 12.51-2.041-10.636c-.24-1.188-1.185-1.873-2.236-1.873h-8.249l-.116.533c1.694.36 3.618.942 4.784 1.564.713.38.916.712 1.151 1.615l3.866 14.666h5.124l7.855-18.378h-5.091Z" fill="url(#a)"/><path d="M294 26.925c0-4.348-1.929-7.778-5.616-7.778-3.702 0-5.942 3.43-5.942 7.744 0 5.112 2.645 7.693 6.44 7.693 1.851 0 3.251-.459 4.309-1.104v-3.396c-1.058.577-2.271.934-3.811.934-1.509 0-2.847-.578-3.018-2.582h7.607c0-.22.031-1.104.031-1.511Zm-7.684-1.613c0-1.92 1.073-2.718 2.053-2.718.949 0 1.96.798 1.96 2.718h-4.013Zm-9.878-6.165c-1.525 0-2.505.781-3.049 1.325l-.202-1.053h-3.423V39.22l3.889-.9.016-4.806c.56.442 1.384 1.07 2.753 1.07 2.785 0 5.32-2.445 5.32-7.829-.015-4.925-2.582-7.608-5.304-7.608Zm-.934 11.7c-.917 0-1.462-.356-1.835-.797l-.016-6.3c.405-.493.965-.833 1.851-.833 1.416 0 2.396 1.732 2.396 3.957 0 2.276-.964 3.974-2.396 3.974Zm-11.091-12.702 3.905-.917V13.78l-3.905.9v3.465Zm0 1.29h3.905v14.86h-3.905v-14.86Zm-4.184 1.257-.249-1.256h-3.36v14.86h3.889V24.224c.918-1.308 2.473-1.07 2.955-.884v-3.905c-.497-.204-2.317-.578-3.235 1.256Zm-7.778-4.942-3.795.883-.016 13.604c0 2.513 1.727 4.364 4.029 4.364 1.275 0 2.209-.255 2.722-.56v-3.448c-.498.22-2.955 1.002-2.955-1.511v-6.03h2.955v-3.616h-2.955l.015-3.686Zm-10.515 8c0-.663.497-.918 1.322-.918 1.182 0 2.675.39 3.858 1.087v-3.991c-1.292-.56-2.567-.781-3.858-.781-3.158 0-5.258 1.8-5.258 4.806 0 4.687 5.911 3.94 5.911 5.961 0 .781-.622 1.036-1.493 1.036-1.291 0-2.94-.578-4.247-1.359v4.042c1.447.68 2.909.968 4.247.968 3.235 0 5.46-1.75 5.46-4.789-.016-5.06-5.942-4.16-5.942-6.063Z" fill="#635BFF"/><rect x="224" y="1" width="85" height="51" rx="7" stroke="#000" stroke-width="2"/><rect x="111" y="1" width="85" height="51" rx="7" stroke="#000" stroke-width="2"/><rect x="1" y="1" width="85" height="51" rx="7" stroke="#000" stroke-width="2"/><defs><linearGradient id="a" x1="2881.44" y1="74.114" x2="2935.37" y2="-1877.27" gradientUnits="userSpaceOnUse"><stop stop-color="#222357"/><stop offset="1" stop-color="#254AA5"/></linearGradient></defs></svg>