<svg width="16" height="8" viewBox="0 0 16 8" fill="none" xmlns="http://www.w3.org/2000/svg">
    <path class="icon-equal" d="M17,7.5H3C2.724,7.5,2.5,7.276,2.5,7S2.724,6.5,3,6.5h14c0.275,0,0.5,0.224,0.5,0.5S17.275,7.5,17,7.5z M17,13.5H3
	c-0.276,0-0.5-0.225-0.5-0.5s0.224-0.5,0.5-0.5h14c0.275,0,0.5,0.225,0.5,0.5S17.275,13.5,17,13.5z" />
    <path class="icon-cross" d="M17.006,17.5c-0.124,0.005-0.27-0.063-0.359-0.156l-14-13.996c-0.183-0.183-0.195-0.512,0-0.706
	c0.194-0.195,0.523-0.183,0.706,0L17.35,16.641c0.186,0.182,0.197,0.512,0.002,0.705C17.255,17.443,17.129,17.496,17.006,17.5z
	 M17.5,2.994c0.005,0.124-0.063,0.27-0.156,0.361L3.348,17.354c-0.183,0.183-0.512,0.194-0.706,0c-0.195-0.194-0.183-0.523,0-0.705
	L16.641,2.65c0.182-0.185,0.512-0.198,0.705-0.001C17.443,2.745,17.496,2.871,17.5,2.994z" />
</svg>