<svg width="74" height="74" fill="none" xmlns="http://www.w3.org/2000/svg"><circle cx="37" cy="37" r="36.5" stroke="#fff"/><g clip-path="url(#a)" fill="#fff"><path d="M49.864 37.664a.536.536 0 0 1-.378-.158L25.895 13.914a.536.536 0 0 1 .756-.756L50.242 36.75a.536.536 0 0 1-.378.914Z"/><path d="M26.272 61.256a.537.537 0 0 1-.378-.914L49.486 36.75a.536.536 0 0 1 .756.756L26.65 61.097a.537.537 0 0 1-.378.159Z"/><path d="M49.864 37.664H.536a.536.536 0 0 1 0-1.072h49.328a.537.537 0 0 1 0 1.072Z"/></g><defs><clipPath id="a"><path fill="#fff" transform="translate(0 13)" d="M0 0h50.4v48.255H0z"/></clipPath></defs></svg>