<svg xmlns="http://www.w3.org/2000/svg" viewBox="0 0 16 16.04"><path d="M3.88 10.96a6.757 6.757 0 0 1-1.39-4.79c.16-1.72.97-3.3 2.26-4.44A6.784 6.784 0 0 1 9.44.04c1.72.05 3.36.76 4.58 1.98A6.761 6.761 0 0 1 16 6.6c.05 1.72-.55 3.4-1.69 4.7a6.775 6.775 0 0 1-9.24.86l-.04.04-3.59 3.59a.8.8 0 0 1-.59.24c-.11 0-.22-.02-.32-.06-.1-.04-.2-.1-.27-.18a.8.8 0 0 1-.24-.59c0-.11.02-.22.06-.32.04-.1.1-.2.18-.27l3.59-3.59s.03-.02.04-.04Zm1.76-7.75c-.48.47-.86 1.03-1.12 1.65-.26.62-.4 1.28-.4 1.95 0 .67.13 1.34.38 1.96.26.62.63 1.18 1.1 1.66.47.47 1.04.85 1.66 1.11.62.26 1.28.39 1.95.38.67 0 1.33-.14 1.95-.4.62-.26 1.18-.64 1.65-1.12.94-.96 1.46-2.24 1.46-3.58 0-1.34-.54-2.62-1.49-3.57a5.092 5.092 0 0 0-3.57-1.49c-1.34 0-2.63.52-3.58 1.46Z" style="fill-rule:evenodd;stroke-width:0"/></svg>