<?xml version="1.0" encoding="utf-8"?>
<!-- Generator: Adobe Illustrator 15.1.0, SVG Export Plug-In . SVG Version: 6.00 Build 0)  -->
<!DOCTYPE svg PUBLIC "-//W3C//DTD SVG 1.1//EN" "http://www.w3.org/Graphics/SVG/1.1/DTD/svg11.dtd">
<svg version="1.1" id="Capa_1" xmlns="http://www.w3.org/2000/svg" xmlns:xlink="http://www.w3.org/1999/xlink" x="0px" y="0px"
	 width="20px" height="20px" viewBox="0 0 20 20" enable-background="new 0 0 20 20" xml:space="preserve">
<path d="M17.006,17.5c-0.124,0.005-0.27-0.063-0.359-0.156l-14-13.996c-0.183-0.183-0.195-0.512,0-0.706
	c0.194-0.195,0.523-0.183,0.706,0L17.35,16.641c0.186,0.182,0.197,0.512,0.002,0.705C17.255,17.443,17.129,17.496,17.006,17.5z
	 M17.5,2.994c0.005,0.124-0.063,0.27-0.156,0.361L3.348,17.354c-0.183,0.183-0.512,0.194-0.706,0c-0.195-0.194-0.183-0.523,0-0.705
	L16.641,2.65c0.182-0.185,0.512-0.198,0.705-0.001C17.443,2.745,17.496,2.871,17.5,2.994z"/>
</svg>
