<?xml version="1.0" encoding="utf-8"?>
<!-- Generator: Adobe Illustrator 15.1.0, SVG Export Plug-In . SVG Version: 6.00 Build 0)  -->
<!DOCTYPE svg PUBLIC "-//W3C//DTD SVG 1.1//EN" "http://www.w3.org/Graphics/SVG/1.1/DTD/svg11.dtd">
<svg version="1.1" id="Capa_1" xmlns="http://www.w3.org/2000/svg" xmlns:xlink="http://www.w3.org/1999/xlink" x="0px" y="0px"
	 width="20px" height="20px" viewBox="0 0 20 20" enable-background="new 0 0 20 20" xml:space="preserve">
<path d="M17.031,17.5c-0.12,0-0.24-0.046-0.331-0.138L2.637,3.3c-0.183-0.183-0.183-0.48,0-0.663s0.48-0.183,0.663,0L17.362,16.7
	c0.184,0.183,0.184,0.479,0,0.662C17.271,17.454,17.151,17.5,17.031,17.5z"/>
<path d="M17.5,2.969c0,0.12-0.046,0.24-0.138,0.331L3.3,17.363c-0.183,0.183-0.48,0.183-0.663,0c-0.183-0.184-0.183-0.48,0-0.663
	L16.7,2.638c0.183-0.184,0.479-0.184,0.662,0C17.454,2.729,17.5,2.849,17.5,2.969z"/>
</svg>
