<svg xmlns="http://www.w3.org/2000/svg" viewBox="0 0 16 16"><path class="cls-1" d="M8 0C6.95 0 5.94.42 5.2 1.17 4.46 1.92 4.04 2.94 4.04 4s.42 2.08 1.16 2.83a3.935 3.935 0 0 0 5.6 0c.74-.75 1.16-1.77 1.16-2.83s-.42-2.08-1.16-2.83A3.935 3.935 0 0 0 8 0ZM5.03 4A2.988 2.988 0 0 1 8 1c.79 0 1.54.32 2.1.88s.87 1.33.87 2.12-.31 1.56-.87 2.12S8.79 7 8 7s-1.54-.32-2.1-.88S5.03 4.79 5.03 4ZM3.06 9c-.26 0-.52.05-.76.15-.24.1-.46.25-.65.43A1.994 1.994 0 0 0 1.07 11c0 1.69.83 2.97 2.11 3.8C4.45 15.62 6.16 16 8 16s3.55-.39 4.82-1.2c1.29-.83 2.11-2.11 2.11-3.8 0-.53-.21-1.04-.58-1.41a1.96 1.96 0 0 0-1.4-.59H3.06Zm-1 2c0-.55.44-1 1-1h9.9c.26 0 .51.11.7.29.19.19.29.44.29.71 0 1.31-.62 2.28-1.66 2.95C11.23 14.63 9.72 15 8 15s-3.23-.36-4.29-1.05c-1.04-.67-1.66-1.64-1.66-2.95Z"/></svg>