<svg width="16" height="16" fill="none" xmlns="http://www.w3.org/2000/svg"><path opacity=".3" d="M8 15.795A7.797 7.797 0 0 1 .205 8 7.797 7.797 0 0 1 8 .205 7.797 7.797 0 0 1 15.795 8 7.797 7.797 0 0 1 8 15.795Z" fill="#fff"/><path d="M8 16c-4.41 0-8-3.59-8-8s3.59-8 8-8 8 3.59 8 8-3.59 8-8 8ZM8 .41C3.815.41.41 3.815.41 8c0 4.185 3.405 7.59 7.59 7.59 4.185 0 7.59-3.405 7.59-7.59C15.59 3.815 12.185.41 8 .41Z" fill="#fff"/><path d="M9.436 10.87h-.41c0-.303.213-.717.648-1.267a5.602 5.602 0 0 1 1.62-1.4H2.668v-.41H11.3a5.536 5.536 0 0 1-1.62-1.399c-.44-.55-.649-.963-.649-1.267h.41c0 .094.054.377.562 1.013.394.493.845.899 1.342 1.202.484.296.89.452 1.173.452v.41c-.287 0-.693.156-1.173.451-.496.304-.948.71-1.342 1.202-.504.636-.562.92-.562 1.014h-.004Z" fill="#fff"/></svg>