<?xml version="1.0" encoding="UTF-8"?><svg id="Capa_1" xmlns="http://www.w3.org/2000/svg" viewBox="0 0 16 16"><defs><style>.cls-1{stroke-width:0px;}</style></defs><path class="cls-1" d="m5.17,9.2c-.28,0-.5.22-.5.5v2.84c0,.28.22.5.5.5s.5-.22.5-.5v-2.84c0-.28-.22-.5-.5-.5Z"/><path class="cls-1" d="m14.29,6.38s-.09,0-.14-.01c0,0,0,0-.01,0l-.2-1.83c-.16-1.52-1.26-2.77-2.71-3.15-.27-.74-.97-1.27-1.8-1.27h-2.93c-.82.02-1.51.57-1.76,1.31-1.42.4-2.49,1.63-2.66,3.11l-.2,1.83c-.42.03-.82.17-1.12.47-.31.31-.48.72-.49,1.15,0,.08,0,.15.01.23l.83,6.25c.11.81.8,1.42,1.62,1.42h10.52c.82,0,1.52-.61,1.62-1.42l.83-6.25c.12-.89-.52-1.72-1.42-1.83ZM6.59,1.12h2.84c.51,0,.92.41.92.92s-.41.92-.92.92h-2.85c-.54.03-.93-.39-.94-.9,0-.01,0-.03,0-.04.03-.08.05-.16.04-.24.11-.37.45-.65.91-.66Zm-3.51,3.53c.11-.97.74-1.78,1.61-2.15.09.35.27.68.54.93.36.34.83.53,1.31.53.02,0,.03,0,.05,0h2.84c.91,0,1.68-.64,1.87-1.5.89.37,1.54,1.2,1.65,2.19l.19,1.72H2.89l.19-1.72Zm10.81,9.68c-.04.32-.31.55-.63.55H2.74c-.32,0-.59-.24-.63-.55l-.83-6.34c0-.17.07-.33.19-.45.12-.12.28-.18.45-.18h12.17s.05,0,.08,0c.35.05.59.37.55.71l-.83,6.25Z"/><path class="cls-1" d="m8.01,9.2c-.28,0-.5.22-.5.5v2.84c0,.28.22.5.5.5s.5-.22.5-.5v-2.84c0-.28-.22-.5-.5-.5Z"/><path class="cls-1" d="m10.85,9.2c-.28,0-.5.22-.5.5v2.84c0,.28.22.5.5.5s.5-.22.5-.5v-2.84c0-.28-.22-.5-.5-.5Z"/></svg>