<svg width="51" height="51" viewBox="0 0 51 51" fill="none" xmlns="http://www.w3.org/2000/svg">
<path d="M25.4066 47.8133C37.7815 47.8133 47.8133 37.7815 47.8133 25.4066C47.8133 13.0318 37.7815 3 25.4066 3C13.0318 3 3 13.0318 3 25.4066C3 37.7815 13.0318 47.8133 25.4066 47.8133Z" fill="white"/>
<path d="M25.4066 49.3133C38.6099 49.3133 49.3133 38.6099 49.3133 25.4066C49.3133 12.2033 38.6099 1.5 25.4066 1.5C12.2033 1.5 1.5 12.2033 1.5 25.4066C1.5 38.6099 12.2033 49.3133 25.4066 49.3133Z" stroke="white" stroke-opacity="0.34" stroke-width="3"/>
<path d="M20.1896 15.8048L33.8276 24.7299C33.9396 24.8035 34.0314 24.9038 34.095 25.0217C34.1586 25.1396 34.1919 25.2715 34.1919 25.4054C34.1919 25.5394 34.1586 25.6713 34.095 25.7892C34.0314 25.9071 33.9396 26.0074 33.8276 26.081L20.1896 35.0035C20.0679 35.0836 19.9268 35.1293 19.7812 35.1356C19.6357 35.1419 19.4911 35.1087 19.3629 35.0394C19.2347 34.9701 19.1277 34.8673 19.0533 34.742C18.9789 34.6168 18.9398 34.4737 18.9403 34.3279V16.4856C18.9389 16.3394 18.9773 16.1956 19.0513 16.0696C19.1254 15.9436 19.2323 15.84 19.3606 15.7701C19.489 15.7002 19.6339 15.6665 19.7799 15.6726C19.9259 15.6787 20.0676 15.7244 20.1896 15.8048Z" fill="#5272F4"/>
</svg>
