<svg xmlns="http://www.w3.org/2000/svg">

	<!-- Card Read more -->
	<symbol id="card-read-more" viewBox="0 0 16 16">
		<title>Card Read more</title>
			<path opacity="0.3" d="M7.99995 15.7948C3.69636 15.7948 0.205078 12.3035 0.205078 7.99995C0.205078 3.69636 3.69636 0.205078 7.99995 0.205078C12.3035 0.205078 15.7948 3.69636 15.7948 7.99995C15.7948 12.3035 12.3035 15.7948 7.99995 15.7948Z" fill="white"/>
			<path d="M8 16C3.58974 16 0 12.4103 0 8C0 3.58974 3.58974 0 8 0C12.4103 0 16 3.58974 16 8C16 12.4103 12.4103 16 8 16ZM8 0.410256C3.81538 0.410256 0.410256 3.81538 0.410256 8C0.410256 12.1846 3.81538 15.5897 8 15.5897C12.1846 15.5897 15.5897 12.1846 15.5897 8C15.5897 3.81538 12.1846 0.410256 8 0.410256Z" fill="white"/>
			<path d="M9.43622 10.8705H9.02597C9.02597 10.567 9.2393 10.1526 9.67417 9.60285C10.0967 9.07362 10.5849 8.63465 11.1224 8.30644C11.1798 8.26952 11.2372 8.2367 11.2947 8.20388H2.66699V7.79362H11.2988C11.2414 7.7608 11.1839 7.72798 11.1265 7.69106C10.5849 7.36285 10.1008 6.92388 9.67827 6.39465C9.2393 5.8449 9.03007 5.43054 9.03007 5.12695H9.44033C9.44033 5.22131 9.49366 5.50439 10.0024 6.14029C10.3962 6.63259 10.8475 7.03875 11.3439 7.34234C11.828 7.63772 12.2342 7.79362 12.5172 7.79362V8.20388C12.2301 8.20388 11.8239 8.35977 11.3439 8.65516C10.8475 8.95875 10.3962 9.3649 10.0024 9.85721C9.49776 10.4931 9.44033 10.7762 9.44033 10.8705H9.43622Z" fill="white"/>
	</symbol>	

	<!-- Card Read more -->
	<symbol id="arrow" viewBox="0 0 16 16">
		<title>Arrow</title>
			<path d="M11 12.3333H10.3333C10.3333 11.84 10.68 11.1667 11.3867 10.2733C12.0733 9.41333 12.8667 8.7 13.74 8.16667C13.8333 8.10667 13.9267 8.05333 14.02 8H0V7.33333H14.0267C13.9333 7.28 13.84 7.22667 13.7467 7.16667C12.8667 6.63333 12.08 5.92 11.3933 5.06C10.68 4.16667 10.34 3.49333 10.34 3H11.0067C11.0067 3.15333 11.0933 3.61333 11.92 4.64667C12.56 5.44667 13.2933 6.10667 14.1 6.6C14.8867 7.08 15.5467 7.33333 16.0067 7.33333V8C15.54 8 14.88 8.25333 14.1 8.73333C13.2933 9.22667 12.56 9.88667 11.92 10.6867C11.1 11.72 11.0067 12.18 11.0067 12.3333H11Z"/>
	</symbol>	

	<!-- Chevron thin -->

	<symbol id="chevron-thin-right" viewBox="0 0 16 16">
		<title>Chevron right</title>
		<g transform="matrix(-2.10007e-16,0.548528,-0.548528,-2.10007e-16,11.6598,0.189791)">
			<path d="M0.346,14.037L14.238,0.693L28.131,14.037L28.823,13.315L14.238,-0.693L-0.346,13.315L0.346,14.037Z"/>
		</g>
	</symbol>

	<symbol id="chevron-thin-left" viewBox="0 0 16 16">
		<title>Chevron left</title>
		<g transform="matrix(-2.10015e-16,0.548546,-0.548546,-2.10015e-16,11.8417,0.19057)">
			<path d="M-0.346,0.361L14.238,14.368L28.822,0.361L28.13,-0.361L14.238,12.982L0.346,-0.361L-0.346,0.361Z"/>
		</g>
	</symbol>


	<!-- Arrow -->

	<symbol id="arrow-right" viewBox="0 0 16 16">
		<title>Arrow right</title>
		<g transform="matrix(0.25,0,0,0.25,0,0)">
			<path d="M59.001,30.661L0,30.661L0,33.338L59.003,33.338L40.696,52.401L42.627,54.255L64,32.001L42.627,9.745L40.696,11.599L59.001,30.661Z"/>
		</g>
	</symbol>


	<!-- Arrow long -->

	<symbol id="arrow-long-right" viewBox="0 0 16 16">
		<title>Arrow long right</title>
		<g transform="matrix(0.207844,0,0,0.207844,3.12639e-12,5.83759)">
			<path d="M71.052,8.562L0,8.562L-0,11.562L71.709,11.562L64.824,18.73L66.988,20.808L76.981,10.404L66.988,-0L64.824,2.078L71.052,8.562Z"/>
		</g>
	</symbol>

	<symbol id="arrow-long-left" viewBox="0 0 16 16">
		<title>Arrow long left</title>
		<g transform="matrix(0.207844,0,0,0.207844,0.000173992,5.83759)">
			<path d="M5.271,11.562L76.98,11.562L76.98,8.562L5.928,8.562L12.156,2.078L9.992,-0L-0.001,10.404L9.992,20.808L12.156,18.73L5.271,11.562Z"/>
		</g>
	</symbol>

	<!-- Card Read more -->
	<symbol id="arrow-white" viewBox="0 0 16 16">
		<title>Arrow</title>
		 <circle class="cls-2" cx="8" cy="8" r="8"/>
  		<path class="cls-1" d="M8.1,11.4h-.2c0-.2-.1-.5-.3-.8-.2-.3-.5-.7-.9-.9-.3-.3-.6-.4-.8-.4v-.2c.2,0,.5.1.9.4.4.3.7.6.9,1,0,0,.1.2.2.3v-6.1h.2v6.1c0,0,0-.2.2-.3.2-.4.6-.7.9-1,.4-.3.7-.4.9-.4v.2c-.2,0-.4.1-.8.4-.4.3-.7.6-.9.9-.2.3-.3.6-.3.8Z"/>
	</symbol>	

	<!-- Contact -->

	<symbol id="email" viewBox="0 0 16 16">
		<title>Email</title>
		<g transform="matrix(0.25,0,0,0.25,0,5.36699e-05)">
			<path d="M60.74,54.014C59.985,54.173 59.353,54.319 58.711,54.442C58.504,54.467 58.295,54.473 58.087,54.46C40.7,54.46 23.312,54.455 5.923,54.445C5.016,54.384 4.114,54.264 3.222,54.087L22.702,34.837L24.761,36.891C25.746,37.878 26.722,38.872 27.714,39.851C28.83,41.021 30.377,41.684 31.994,41.684C33.61,41.684 35.158,41.021 36.273,39.851C37.844,38.303 39.395,36.735 40.946,35.169C41.064,35.038 41.169,34.894 41.258,34.741L60.74,54.014ZM63.997,49.594L63.479,51.18L44.148,32.047L63.514,12.915L64,14.403L63.997,49.594ZM0,14.413L0.503,12.827L19.837,31.959L0.503,51.082L0,49.596L0,14.413ZM60.682,10.181C59.763,11.08 58.834,11.971 57.913,12.882C49.867,20.938 41.823,28.994 33.781,37.05C33.359,37.612 32.695,37.944 31.991,37.944C31.288,37.944 30.624,37.612 30.201,37.05L3.789,10.584C3.643,10.438 3.507,10.285 3.242,10.005C3.998,9.841 4.619,9.685 5.256,9.57C5.526,9.535 5.798,9.525 6.069,9.539C23.356,9.539 40.642,9.544 57.928,9.552C58.828,9.604 59.724,9.711 60.612,9.872L60.68,10.171L60.682,10.181Z"/>
		</g>
	</symbol>

	<symbol id="map-pin-1" viewBox="0 0 16 16">
		<title>Map pin 1</title>
		<g transform="matrix(0.71678,0,0,0.71678,2.65847,-0.000669683)">
			<path d="M7.32,22.323C7.187,22.206 7.068,22.075 6.965,21.931C4.959,18.326 2.959,14.718 0.965,11.107C0.199,9.783 -0.122,8.247 0.05,6.727C0.261,4.156 1.846,1.89 4.188,0.809C6.548,-0.425 9.412,-0.234 11.588,1.302C13.385,2.451 14.574,4.349 14.824,6.468C15.056,8.061 14.75,9.687 13.954,11.086C11.954,14.703 9.95,18.318 7.941,21.93C7.838,22.074 7.719,22.205 7.586,22.322L7.32,22.323ZM7.473,3.745L7.453,3.745C5.415,3.745 3.738,5.422 3.738,7.46C3.738,9.498 5.415,11.175 7.453,11.175C9.476,11.175 11.146,9.523 11.168,7.5L11.168,7.468C11.168,5.436 9.505,3.76 7.473,3.745"/>
		</g>
	</symbol>

	<symbol id="map-pin-2" viewBox="0 0 16 16">
		<title>Map pin 2</title>
		<g transform="matrix(0.25,0,0,0.25,-4.54008e-07,3.8991e-13)">
			<path d="M48.978,5.999C44.167,2.118 38.168,-0 31.987,-0C17.142,-0 4.927,12.215 4.927,27.06L4.927,27.082C4.927,31.561 7.235,36.821 10.64,41.921C17.966,52.896 30.168,63.325 30.168,63.325C31.222,64.225 32.774,64.225 33.828,63.325C33.828,63.325 46.032,52.896 53.359,41.921C56.764,36.821 59.073,31.562 59.073,27.083C59.075,23.241 58.251,19.443 56.658,15.947C56.013,14.531 54.34,13.905 52.924,14.55C51.509,15.196 50.883,16.869 51.528,18.284C52.787,21.046 53.437,24.046 53.435,27.081L53.435,27.082C53.435,31.943 49.727,37.773 45.503,43.128C40.625,49.311 34.874,54.794 31.999,57.411C29.123,54.794 23.373,49.311 18.496,43.128C14.272,37.773 10.565,31.943 10.565,27.082L10.565,27.06C10.565,15.308 20.235,5.637 31.987,5.637C36.88,5.637 41.629,7.314 45.438,10.387C46.649,11.364 48.425,11.174 49.402,9.963C50.379,8.752 50.189,6.976 48.978,5.999ZM31.994,15.3C25.879,15.3 20.915,20.265 20.915,26.38C20.915,32.494 25.879,37.459 31.994,37.459C38.109,37.459 43.074,32.494 43.074,26.38C43.074,20.265 38.109,15.3 31.994,15.3ZM31.994,20.938C34.998,20.938 37.436,23.376 37.436,26.38C37.436,29.383 34.998,31.822 31.994,31.822C28.991,31.822 26.552,29.383 26.552,26.38C26.552,23.376 28.991,20.938 31.994,20.938Z"/>
		</g>
	</symbol>

	<symbol id="phone" viewBox="0 0 16 16">
		<title>Phone</title>
		<g transform="matrix(1.07234,0,0,1.07234,2.6424e-21,0.00938268)">
			<path d="M0,3.741C0.044,3.613 0.096,3.487 0.156,3.365C0.581,2.612 1.098,1.913 1.694,1.286C2.046,0.915 2.419,0.564 2.811,0.235C2.971,0.088 3.181,0.006 3.399,0.006C3.707,0.006 3.993,0.17 4.149,0.435C4.861,1.376 5.477,2.386 5.989,3.45C6.059,3.611 6.119,3.776 6.168,3.945C6.266,4.215 6.2,4.519 6,4.725C5.762,4.976 5.5,5.205 5.241,5.433C4.895,5.733 4.886,5.733 5.065,6.151C5.784,7.909 7.208,9.289 8.988,9.951C9.03,9.976 9.077,9.99 9.126,9.99C9.219,9.99 9.305,9.941 9.353,9.862C9.575,9.583 9.815,9.318 10.053,9.055C10.314,8.724 10.776,8.62 11.153,8.809C11.686,9.046 12.206,9.31 12.712,9.601C13.312,9.954 13.874,10.356 14.448,10.743C14.676,10.901 14.837,11.139 14.897,11.41C14.942,11.561 14.922,11.724 14.842,11.859C14.747,12.031 14.636,12.193 14.513,12.346C13.687,13.269 12.731,14.067 11.676,14.716C11.335,14.907 10.931,14.949 10.558,14.832C9.235,14.549 7.979,14.014 6.858,13.257C4.518,11.761 2.579,9.716 1.21,7.3C0.682,6.391 0.307,5.401 0.1,4.37C0.06,4.177 0.036,3.981 0,3.741"/>
		</g>
	</symbol>


	<!-- Social -->

	<symbol id="facebook" viewBox="0 0 16 16">
		<title>Facebook</title>
		<g transform="matrix(0.666667,0,0,0.666667,0,0)">
			<path d="M9,8L6,8L6,12L9,12L9,24L14,24L14,12L17.642,12L18,8L14,8L14,6.333C14,5.378 14.192,5 15.115,5L18,5L18,0L14.192,0C10.596,0 9,1.583 9,4.615L9,8Z"/>
		</g>
	</symbol>

	<symbol id="instagram" viewBox="0 0 16 16">
		<title>Instagram</title>
		<g transform="matrix(0.666667,0,0,0.666667,0,0)">
			<path d="M12,2.163C15.204,2.163 15.584,2.175 16.85,2.233C20.102,2.381 21.621,3.924 21.769,7.152C21.827,8.417 21.838,8.797 21.838,12.001C21.838,15.206 21.826,15.585 21.769,16.85C21.62,20.075 20.105,21.621 16.85,21.769C15.584,21.827 15.206,21.839 12,21.839C8.796,21.839 8.416,21.827 7.151,21.769C3.891,21.62 2.38,20.07 2.232,16.849C2.174,15.584 2.162,15.205 2.162,12C2.162,8.796 2.175,8.417 2.232,7.151C2.381,3.924 3.896,2.38 7.151,2.232C8.417,2.175 8.796,2.163 12,2.163ZM12,0C8.741,0 8.333,0.014 7.053,0.072C2.695,0.272 0.273,2.69 0.073,7.052C0.014,8.333 -0,8.741 -0,12C-0,15.259 0.014,15.668 0.072,16.948C0.272,21.306 2.69,23.728 7.052,23.928C8.333,23.986 8.741,24 12,24C15.259,24 15.668,23.986 16.948,23.928C21.302,23.728 23.73,21.31 23.927,16.948C23.986,15.668 24,15.259 24,12C24,8.741 23.986,8.333 23.928,7.053C23.732,2.699 21.311,0.273 16.949,0.073C15.668,0.014 15.259,-0 12,-0ZM12,5.838C8.597,5.838 5.838,8.597 5.838,12C5.838,15.403 8.597,18.163 12,18.163C15.403,18.163 18.162,15.404 18.162,12C18.162,8.597 15.403,5.838 12,5.838ZM12,16C9.791,16 8,14.21 8,12C8,9.791 9.791,8 12,8C14.209,8 16,9.791 16,12C16,14.21 14.209,16 12,16ZM18.406,4.155C17.61,4.155 16.965,4.8 16.965,5.595C16.965,6.39 17.61,7.035 18.406,7.035C19.201,7.035 19.845,6.39 19.845,5.595C19.845,4.8 19.201,4.155 18.406,4.155Z"/>
		</g>
	</symbol>

	<symbol id="linkedin" viewBox="0 0 16 16">
		<title>Linkedin</title>
		<g transform="matrix(0.666667,0,0,0.666667,0,-0.333333)">
			<path d="M4.98,3.5C4.98,4.881 3.87,6 2.5,6C1.13,6 0.02,4.881 0.02,3.5C0.02,2.12 1.13,1 2.5,1C3.87,1 4.98,2.12 4.98,3.5ZM5,8L0,8L0,24L5,24L5,8ZM12.982,8L8.014,8L8.014,24L12.983,24L12.983,15.601C12.983,10.931 19.012,10.549 19.012,15.601L19.012,24L24,24L24,13.869C24,5.989 15.078,6.276 12.982,10.155L12.982,8Z"/>
		</g>
	</symbol>

	<symbol id="youtube" viewBox="0 0 16 16">
		<title>Youtube</title>
		<g transform="matrix(0.666667,0,0,0.666667,1.77636e-15,-1.77636e-15)">
			<path d="M19.615,3.184C16.011,2.938 7.984,2.939 4.385,3.184C0.488,3.45 0.029,5.804 -0,12C0.029,18.185 0.484,20.549 4.385,20.816C7.985,21.061 16.011,21.062 19.615,20.816C23.512,20.55 23.971,18.196 24,12C23.971,5.815 23.516,3.451 19.615,3.184ZM9,16L9,8L17,11.993L9,16Z"/>
		</g>
	</symbol>

	<symbol id="twitter" viewBox="0 0 16 16">
		<title>Twitter</title>
		<path d="M14.9993 3.42453C14.475 3.66904 13.9189 3.82962 13.3496 3.90096C13.9497 3.52259 14.3988 2.92712 14.6133 2.22551C14.0501 2.57884 13.4327 2.82647 12.7891 2.96042C12.3569 2.47283 11.7839 2.14945 11.1593 2.04057C10.5347 1.93169 9.8935 2.0434 9.33535 2.35833C8.77719 2.67327 8.33337 3.17378 8.07288 3.78206C7.81239 4.39034 7.74983 5.07231 7.89492 5.72194C6.75282 5.66159 5.63553 5.34871 4.61558 4.8036C3.59563 4.25849 2.69583 3.49335 1.97459 2.55784C1.71929 3.02011 1.58513 3.54561 1.58585 4.08052C1.58585 5.13039 2.09272 6.0579 2.86332 6.60094C2.40729 6.5858 1.96129 6.45597 1.5625 6.22226V6.25991C1.56264 6.95912 1.79215 7.63677 2.21212 8.17796C2.63209 8.71915 3.21668 9.09056 3.86676 9.22924C3.44342 9.35018 2.99952 9.36801 2.56868 9.28137C2.75197 9.88322 3.10921 10.4096 3.59038 10.7867C4.07155 11.1639 4.65256 11.373 5.25206 11.3847C4.65624 11.878 3.97402 12.2427 3.24442 12.4579C2.51482 12.6731 1.75215 12.7345 1 12.6388C2.31298 13.529 3.84141 14.0015 5.40247 14C10.6861 14 13.5756 9.38563 13.5756 5.38381C13.5756 5.25348 13.5721 5.1217 13.5666 4.99282C14.129 4.56431 14.6144 4.03347 15 3.42526L14.9993 3.42453Z"/>
	</symbol>


	<!-- UI -->
	<symbol id="user" viewBox="0 0 16 16">
		<title>User</title>
		<path d="m8,0c-1.05,0-2.06.42-2.8,1.17-.74.75-1.16,1.77-1.16,2.83s.42,2.08,1.16,2.83c.74.75,1.75,1.17,2.8,1.17s2.06-.42,2.8-1.17c.74-.75,1.16-1.77,1.16-2.83s-.42-2.08-1.16-2.83c-.74-.75-1.75-1.17-2.8-1.17Zm-2.97,4c0-.8.31-1.56.87-2.12.56-.56,1.31-.88,2.1-.88s1.54.32,2.1.88c.56.56.87,1.33.87,2.12s-.31,1.56-.87,2.12c-.56.56-1.31.88-2.1.88s-1.54-.32-2.1-.88c-.56-.56-.87-1.33-.87-2.12Zm-1.97,5c-.26,0-.52.05-.76.15-.24.1-.46.25-.65.43-.18.19-.33.41-.43.65-.1.24-.15.5-.15.77,0,1.69.83,2.97,2.11,3.8,1.27.82,2.98,1.2,4.82,1.2s3.55-.39,4.82-1.2c1.29-.83,2.11-2.11,2.11-3.8,0-.53-.21-1.04-.58-1.41-.37-.38-.88-.59-1.4-.59H3.06Zm-1,2c0-.55.44-1,1-1h9.9c.26,0,.51.11.7.29.19.19.29.44.29.71,0,1.31-.62,2.28-1.66,2.95-1.06.68-2.57,1.05-4.29,1.05s-3.23-.36-4.29-1.05c-1.04-.67-1.66-1.64-1.66-2.95Z"/>
	</symbol>

	<symbol id="search" viewBox="0 0 16 16">
		<title>Search</title>
		<path d="m3.88,10.96c-1.06-1.36-1.55-3.07-1.39-4.79.16-1.72.97-3.3,2.26-4.44C6.04.59,7.72-.01,9.44.04c1.72.05,3.36.76,4.58,1.98,1.22,1.22,1.93,2.86,1.98,4.58.05,1.72-.55,3.4-1.69,4.7-1.14,1.29-2.73,2.1-4.45,2.26-1.72.16-3.43-.34-4.79-1.4l-.04.04-3.59,3.59c-.08.08-.17.14-.27.18-.1.04-.21.06-.32.06s-.22-.02-.32-.06c-.1-.04-.2-.1-.27-.18-.08-.08-.14-.17-.18-.27-.04-.1-.06-.21-.06-.32s.02-.22.06-.32c.04-.1.1-.2.18-.27l3.59-3.59s.03-.02.04-.04Zm1.76-7.75c-.48.47-.86,1.03-1.12,1.65-.26.62-.4,1.28-.4,1.95,0,.67.13,1.34.38,1.96.26.62.63,1.18,1.1,1.66.47.47,1.04.85,1.66,1.11.62.26,1.28.39,1.95.38.67,0,1.33-.14,1.95-.4.62-.26,1.18-.64,1.65-1.12.94-.96,1.46-2.24,1.46-3.58,0-1.34-.54-2.62-1.49-3.57-.95-.95-2.23-1.48-3.57-1.49-1.34,0-2.63.52-3.58,1.46Z"/>
	</symbol>

</svg>