<svg width="74" height="74" viewBox="0 0 74 74" fill="none" xmlns="http://www.w3.org/2000/svg">
<circle cx="37" cy="37" r="36.5" stroke="white"/>
<g clip-path="url(#clip0_215_285)">
<path d="M49.864 37.6639C49.7221 37.6633 49.5861 37.6064 49.486 37.5057L25.8946 13.9142C25.8067 13.8116 25.7608 13.6797 25.766 13.5448C25.7712 13.4098 25.8272 13.2818 25.9227 13.1863C26.0182 13.0908 26.1462 13.0349 26.2811 13.0297C26.416 13.0245 26.548 13.0704 26.6506 13.1582L50.242 36.7497C50.3166 36.8247 50.3673 36.92 50.3878 37.0237C50.4083 37.1274 50.3977 37.2349 50.3573 37.3326C50.3169 37.4303 50.2485 37.5139 50.1607 37.5728C50.073 37.6317 49.9698 37.6634 49.864 37.6639Z" fill="white"/>
<path d="M26.2722 61.2557C26.1665 61.2552 26.0633 61.2235 25.9755 61.1646C25.8877 61.1057 25.8194 61.0221 25.779 60.9244C25.7386 60.8267 25.728 60.7192 25.7485 60.6155C25.769 60.5118 25.8197 60.4165 25.8942 60.3415L49.4857 36.75C49.5883 36.6622 49.7202 36.6163 49.8551 36.6215C49.9901 36.6267 50.1181 36.6826 50.2136 36.7781C50.3091 36.8736 50.365 37.0016 50.3702 37.1366C50.3754 37.2715 50.3295 37.4034 50.2417 37.506L26.6502 61.0975C26.5501 61.1982 26.4142 61.2551 26.2722 61.2557Z" fill="white"/>
<path d="M49.8638 37.6641L0.53617 37.6641C0.393969 37.6641 0.257592 37.6076 0.15704 37.5071C0.0564888 37.4065 -1.48263e-08 37.2702 -1.17184e-08 37.128C-8.61047e-09 36.9858 0.0564888 36.8494 0.15704 36.7488C0.257592 36.6483 0.393969 36.5918 0.53617 36.5918L49.8638 36.5918C50.006 36.5918 50.1424 36.6483 50.243 36.7488C50.3435 36.8494 50.4 36.9858 50.4 37.128C50.4 37.2702 50.3435 37.4065 50.243 37.5071C50.1424 37.6076 50.006 37.6641 49.8638 37.6641Z" fill="white"/>
</g>
<defs>
<clipPath id="clip0_215_285">
<rect width="50.4" height="48.2553" fill="white" transform="translate(0 13)"/>
</clipPath>
</defs>
</svg>
