<svg width="310" height="53" viewBox="0 0 310 53" fill="none" xmlns="http://www.w3.org/2000/svg">
<path d="M37.4629 11.9824H49.6647V33.9071H37.4629V11.9824Z" fill="#FF5F00"/>
<path d="M29.2119 43.9396V41.6155C29.2119 40.7244 28.6695 40.1435 27.7398 40.1435C27.275 40.1435 26.7714 40.2985 26.4227 40.8021C26.1517 40.3759 25.7643 40.1435 25.1833 40.1435C24.7958 40.1435 24.4086 40.2597 24.0986 40.6858V40.221H23.2852V43.9396H24.0986V41.8866C24.0986 41.2282 24.4473 40.9182 24.9897 40.9182C25.5318 40.9182 25.8032 41.2669 25.8032 41.8866V43.9396H26.6166V41.8866C26.6166 41.2282 27.0038 40.9182 27.5074 40.9182C28.0498 40.9182 28.3208 41.2669 28.3208 41.8866V43.9396H29.2119ZM41.2586 40.221H39.9418V39.0977H39.1283V40.221H38.3923V40.9568H39.1281V42.6614C39.1281 43.5136 39.4768 44.0171 40.4065 44.0171C40.7552 44.0171 41.1424 43.901 41.4137 43.746L41.1812 43.0487C40.9488 43.2036 40.6778 43.2424 40.484 43.2424C40.0967 43.2424 39.9418 43.01 39.9418 42.6226V40.9568H41.2586V40.221ZM48.1538 40.1434C47.689 40.1434 47.3792 40.3759 47.1854 40.6858V40.221H46.3719V43.9396H47.1854V41.8479C47.1854 41.2282 47.4564 40.8795 47.96 40.8795C48.115 40.8795 48.3087 40.9184 48.4636 40.957L48.696 40.1824C48.5411 40.1435 48.3087 40.1435 48.1538 40.1435V40.1434ZM37.7338 40.5309C37.3463 40.2596 36.804 40.1435 36.223 40.1435C35.2934 40.1435 34.6737 40.6083 34.6737 41.3443C34.6737 41.9642 35.1385 42.3127 35.952 42.429L36.3393 42.4678C36.7654 42.5451 36.9978 42.6614 36.9978 42.8551C36.9978 43.1262 36.6879 43.3199 36.1455 43.3199C35.6033 43.3199 35.1771 43.1262 34.9059 42.9326L34.5186 43.5523C34.9447 43.8621 35.5258 44.0171 36.1067 44.0171C37.1914 44.0171 37.8113 43.5137 37.8113 42.8163C37.8113 42.1578 37.3076 41.8091 36.5328 41.693L36.1455 41.6542C35.7968 41.6154 35.5258 41.5381 35.5258 41.3057C35.5258 41.0345 35.7968 40.8795 36.223 40.8795C36.6879 40.8795 37.1527 41.0731 37.3851 41.1894L37.7338 40.5309ZM59.3486 40.1435C58.8836 40.1435 58.5738 40.3759 58.38 40.6858V40.221H57.5666V43.9396H58.38V41.8479C58.38 41.2282 58.6512 40.8795 59.1547 40.8795C59.3098 40.8795 59.5035 40.9184 59.6585 40.957L59.8908 40.1824C59.7359 40.1435 59.5035 40.1435 59.3486 40.1435ZM48.9672 42.0803C48.9672 43.2036 49.7419 44.0171 50.9428 44.0171C51.4851 44.0171 51.8724 43.901 52.2597 43.5911L51.8724 42.9326C51.5625 43.165 51.2527 43.2811 50.904 43.2811C50.2455 43.2811 49.7807 42.8163 49.7807 42.0803C49.7807 41.3831 50.2455 40.9182 50.904 40.8795C51.2527 40.8795 51.5625 40.9956 51.8724 41.2282L52.2597 40.5697C51.8724 40.2596 51.4851 40.1435 50.9428 40.1435C49.7419 40.1435 48.9672 40.957 48.9672 42.0803ZM56.4821 42.0803V40.221H55.6686V40.6858C55.3974 40.3373 55.0101 40.1435 54.5065 40.1435C53.4607 40.1435 52.6472 40.957 52.6472 42.0803C52.6472 43.2036 53.4607 44.0171 54.5065 44.0171C55.0488 44.0171 55.4362 43.8235 55.6686 43.4748V43.9396H56.4821V42.0803ZM53.4993 42.0803C53.4993 41.4218 53.9254 40.8795 54.6226 40.8795C55.2811 40.8795 55.7461 41.3831 55.7461 42.0803C55.7461 42.7388 55.2811 43.2811 54.6226 43.2811C53.9254 43.2423 53.4993 42.7388 53.4993 42.0803ZM43.7767 40.1435C42.692 40.1435 41.9172 40.9182 41.9172 42.0803C41.9172 43.2424 42.6918 44.0171 43.8153 44.0171C44.3575 44.0171 44.9 43.8621 45.3261 43.5136L44.9386 42.9326C44.6288 43.165 44.2414 43.3199 43.8541 43.3199C43.3505 43.3199 42.8469 43.0875 42.7306 42.4288H45.481V42.1191C45.5198 40.9182 44.8227 40.1435 43.7767 40.1435ZM43.7767 40.8407C44.2801 40.8407 44.6289 41.1507 44.7062 41.7318H42.7695C42.8469 41.2282 43.1956 40.8407 43.7767 40.8407ZM63.9581 42.0803V38.749H63.1447V40.6858C62.8735 40.3373 62.4861 40.1435 61.9825 40.1435C60.9367 40.1435 60.1232 40.957 60.1232 42.0803C60.1232 43.2036 60.9367 44.0171 61.9825 44.0171C62.525 44.0171 62.9123 43.8235 63.1447 43.4748V43.9396H63.9581V42.0803ZM60.9755 42.0803C60.9755 41.4218 61.4015 40.8795 62.0988 40.8795C62.7573 40.8795 63.2221 41.3831 63.2221 42.0803C63.2221 42.7388 62.7573 43.2811 62.0988 43.2811C61.4015 43.2423 60.9755 42.7388 60.9755 42.0803ZM33.7826 42.0803V40.221H32.9692V40.6858C32.698 40.3373 32.3106 40.1435 31.807 40.1435C30.7612 40.1435 29.9477 40.957 29.9477 42.0803C29.9477 43.2036 30.7612 44.0171 31.807 44.0171C32.3495 44.0171 32.7368 43.8235 32.9692 43.4748V43.9396H33.7826V42.0803ZM30.7612 42.0803C30.7612 41.4218 31.1873 40.8795 31.8845 40.8795C32.543 40.8795 33.008 41.3831 33.008 42.0803C33.008 42.7388 32.543 43.2811 31.8845 43.2811C31.1873 43.2423 30.7612 42.7388 30.7612 42.0803Z" fill="black"/>
<path d="M38.2377 22.945C38.2377 18.4904 40.3294 14.5393 43.5444 11.9826C41.1816 10.1233 38.199 9 34.9452 9C27.2364 9 21 15.2364 21 22.945C21 30.6535 27.2364 36.8901 34.945 36.8901C38.1989 36.8901 41.1815 35.7668 43.5444 33.9073C40.3294 31.3894 38.2377 27.3996 38.2377 22.945Z" fill="#EB001B"/>
<path d="M66.1274 22.945C66.1274 30.6535 59.8909 36.8901 52.1823 36.8901C48.9285 36.8901 45.9459 35.7668 43.583 33.9073C46.8368 31.3508 48.8899 27.3996 48.8899 22.945C48.8899 18.4904 46.798 14.5393 43.583 11.9826C45.9457 10.1233 48.9285 9 52.1823 9C59.8909 9 66.1274 15.2753 66.1274 22.945Z" fill="#F79E1B"/>
<path d="M154.031 23.0741C153.996 25.7209 156.436 27.1978 158.274 28.076C160.162 28.9769 160.796 29.5547 160.789 30.3605C160.774 31.5936 159.282 32.1379 157.886 32.159C155.45 32.196 154.034 31.5141 152.908 30.9983L152.031 35.0248C153.16 35.5353 155.252 35.9805 157.421 36C162.513 36 165.844 33.5352 165.862 29.7138C165.882 24.8638 159.021 24.5954 159.068 22.4276C159.084 21.7702 159.724 21.0688 161.126 20.8904C161.819 20.8003 163.734 20.7314 165.906 21.7118L166.758 17.8161C165.59 17.3992 164.089 17 162.221 17C157.429 17 154.058 19.4983 154.031 23.0741ZM174.946 17.3356C174.017 17.3356 173.233 17.8674 172.883 18.6835L165.61 35.7139H170.698L171.711 32.9699H177.928L178.515 35.7139H183L179.087 17.3356H174.946ZM175.658 22.3002L177.127 29.2015H173.105L175.658 22.3002ZM147.862 17.3358L143.851 35.7136H148.699L152.708 17.3353H147.862M140.689 17.3353L135.642 29.8446L133.601 19.2085C133.361 18.0212 132.416 17.3356 131.365 17.3356H123.116L123 17.8692C124.694 18.2296 126.618 18.8109 127.784 19.4328C128.497 19.8127 128.7 20.1448 128.935 21.0476L132.801 35.7139H137.925L145.78 17.3356L140.689 17.3353Z" fill="url(#paint0_linear_93_5929)"/>
<path d="M294 26.9249C294 22.5773 292.071 19.1468 288.384 19.1468C284.682 19.1468 282.442 22.5774 282.442 26.891C282.442 32.0027 285.087 34.5841 288.882 34.5841C290.733 34.5841 292.133 34.1255 293.191 33.4802V30.0836C292.133 30.6611 290.92 31.0178 289.38 31.0178C287.871 31.0178 286.533 30.4403 286.362 28.4364H293.969C293.969 28.2155 294 27.3324 294 26.9249ZM286.316 25.3116C286.316 23.3925 287.389 22.5943 288.369 22.5943C289.318 22.5943 290.329 23.3925 290.329 25.3116H286.316ZM276.438 19.1468C274.913 19.1468 273.933 19.928 273.389 20.4715L273.187 19.4186H269.764V39.2203L273.653 38.3203L273.669 33.5142C274.229 33.9557 275.053 34.5841 276.422 34.5841C279.207 34.5841 281.742 32.1386 281.742 26.7551C281.727 21.83 279.16 19.1468 276.438 19.1468H276.438ZM275.504 30.8479C274.587 30.8479 274.042 30.4913 273.669 30.0497L273.653 23.7491C274.058 23.2566 274.618 22.917 275.504 22.917C276.92 22.917 277.9 24.6492 277.9 26.8739C277.9 29.1496 276.936 30.8479 275.504 30.8479ZM264.413 18.1448L268.318 17.2278V13.7803L264.413 14.6804V18.1448ZM264.413 19.4355H268.318V34.2953H264.413V19.4355ZM260.229 20.6922L259.98 19.4355H256.62V34.2953H260.509V24.2247C261.427 22.917 262.982 23.1548 263.464 23.3415V19.4355C262.967 19.2317 261.147 18.8581 260.229 20.6922ZM252.451 15.7503L248.656 16.6333L248.64 30.2365C248.64 32.7501 250.367 34.601 252.669 34.601C253.944 34.601 254.878 34.3463 255.391 34.0406V30.5932C254.893 30.8139 252.436 31.5951 252.436 29.0817V23.0528H255.391V19.4355H252.436L252.451 15.7503ZM241.936 23.7491C241.936 23.0868 242.433 22.832 243.258 22.832C244.44 22.832 245.933 23.2227 247.116 23.919V19.928C245.824 19.3676 244.549 19.1468 243.258 19.1468C240.1 19.1468 238 20.947 238 23.953C238 28.6401 243.911 27.8929 243.911 29.914C243.911 30.695 243.289 30.9498 242.418 30.9498C241.127 30.9498 239.478 30.3724 238.171 29.5912V33.6331C239.618 34.3124 241.08 34.601 242.418 34.601C245.653 34.601 247.878 32.8519 247.878 29.812C247.862 24.7512 241.936 25.6512 241.936 23.7491Z" fill="#635BFF"/>
<rect x="224" y="1" width="85" height="51" rx="7" stroke="black" stroke-width="2"/>
<rect x="111" y="1" width="85" height="51" rx="7" stroke="black" stroke-width="2"/>
<rect x="1" y="1" width="85" height="51" rx="7" stroke="black" stroke-width="2"/>
<defs>
<linearGradient id="paint0_linear_93_5929" x1="2881.44" y1="74.114" x2="2935.37" y2="-1877.27" gradientUnits="userSpaceOnUse">
<stop stop-color="#222357"/>
<stop offset="1" stop-color="#254AA5"/>
</linearGradient>
</defs>
</svg>
