<?xml version="1.0" encoding="UTF-8"?><svg id="Capa_3" xmlns="http://www.w3.org/2000/svg" viewBox="0 0 16 16.04"><defs><style>.cls-1{fill-rule:evenodd;stroke-width:0px;}</style></defs><path class="cls-1" d="m3.88,10.96c-1.06-1.36-1.55-3.07-1.39-4.79.16-1.72.97-3.3,2.26-4.44C6.04.59,7.72-.01,9.44.04c1.72.05,3.36.76,4.58,1.98,1.22,1.22,1.93,2.86,1.98,4.58.05,1.72-.55,3.4-1.69,4.7-1.14,1.29-2.73,2.1-4.45,2.26-1.72.16-3.43-.34-4.79-1.4l-.04.04-3.59,3.59c-.08.08-.17.14-.27.18-.1.04-.21.06-.32.06s-.22-.02-.32-.06c-.1-.04-.2-.1-.27-.18-.08-.08-.14-.17-.18-.27-.04-.1-.06-.21-.06-.32s.02-.22.06-.32c.04-.1.1-.2.18-.27l3.59-3.59s.03-.02.04-.04Zm1.76-7.75c-.48.47-.86,1.03-1.12,1.65-.26.62-.4,1.28-.4,1.95,0,.67.13,1.34.38,1.96.26.62.63,1.18,1.1,1.66.47.47,1.04.85,1.66,1.11.62.26,1.28.39,1.95.38.67,0,1.33-.14,1.95-.4.62-.26,1.18-.64,1.65-1.12.94-.96,1.46-2.24,1.46-3.58,0-1.34-.54-2.62-1.49-3.57-.95-.95-2.23-1.48-3.57-1.49-1.34,0-2.63.52-3.58,1.46Z"/></svg>