<?xml version="1.0" encoding="UTF-8"?>
<svg id="Capa_2" xmlns="http://www.w3.org/2000/svg" viewBox="0 0 16 16">

    <path class="cls-1" d="m8,0c-1.05,0-2.06.42-2.8,1.17-.74.75-1.16,1.77-1.16,2.83s.42,2.08,1.16,2.83c.74.75,1.75,1.17,2.8,1.17s2.06-.42,2.8-1.17c.74-.75,1.16-1.77,1.16-2.83s-.42-2.08-1.16-2.83c-.74-.75-1.75-1.17-2.8-1.17Zm-2.97,4c0-.8.31-1.56.87-2.12.56-.56,1.31-.88,2.1-.88s1.54.32,2.1.88c.56.56.87,1.33.87,2.12s-.31,1.56-.87,2.12c-.56.56-1.31.88-2.1.88s-1.54-.32-2.1-.88c-.56-.56-.87-1.33-.87-2.12Zm-1.97,5c-.26,0-.52.05-.76.15-.24.1-.46.25-.65.43-.18.19-.33.41-.43.65-.1.24-.15.5-.15.77,0,1.69.83,2.97,2.11,3.8,1.27.82,2.98,1.2,4.82,1.2s3.55-.39,4.82-1.2c1.29-.83,2.11-2.11,2.11-3.8,0-.53-.21-1.04-.58-1.41-.37-.38-.88-.59-1.4-.59H3.06Zm-1,2c0-.55.44-1,1-1h9.9c.26,0,.51.11.7.29.19.19.29.44.29.71,0,1.31-.62,2.28-1.66,2.95-1.06.68-2.57,1.05-4.29,1.05s-3.23-.36-4.29-1.05c-1.04-.67-1.66-1.64-1.66-2.95Z"/></svg>