<svg width="260" height="45" viewBox="0 0 260 45" fill="none" xmlns="http://www.w3.org/2000/svg">
<path d="M2.85044 8.66782V43.4718H0V0.0957031L28.5612 35.5625V0.625937H31.4116V44.1935L2.85044 8.66782Z" fill="white"/>
<path d="M59.7736 7.41588L43.536 43.4718H40.3594L59.7878 0.0957031L78.1242 43.4718H75.0185L70.3812 32.602L59.7736 7.41588ZM69.1049 29.6268L59.7736 7.41588L69.1049 29.6268Z" fill="white"/>
<path d="M89.993 8.66782V43.4718H87.1426V0.0957031L115.704 35.5625V0.625937H118.554V44.1935L89.993 8.66782Z" fill="white"/>
<path d="M149.002 43.9279C145.23 43.9279 141.741 42.9558 138.536 40.9969C135.317 39.038 132.778 36.3868 130.921 33.0286C129.063 29.6705 128.127 26.003 128.127 22.0557C128.127 18.0937 129.063 14.441 130.921 11.0828C132.778 7.7247 135.317 5.0588 138.536 3.11461C141.755 1.15569 145.244 0.183594 149.002 0.183594C152.76 0.183594 156.263 1.15569 159.468 3.11461C162.687 5.07353 165.225 7.7247 167.083 11.0828C168.941 14.441 169.877 18.1084 169.877 22.0557C169.877 26.0178 168.941 29.6705 167.083 33.0286C165.225 36.3868 162.687 39.0527 159.468 40.9969C156.263 42.9558 152.774 43.9279 149.002 43.9279ZM149.002 3.18825C145.74 3.18825 142.734 4.02779 139.997 5.72159C137.246 7.4154 135.062 9.69835 133.431 12.5704C131.8 15.4425 130.992 18.5945 130.992 22.0263C130.992 25.4581 131.8 28.61 133.431 31.4821C135.062 34.3542 137.246 36.6519 139.997 38.331C142.748 40.0248 145.754 40.8643 149.002 40.8643C152.264 40.8643 155.256 40.0248 158.007 38.331C160.758 36.6372 162.942 34.3542 164.545 31.4821C166.147 28.61 166.955 25.4581 166.955 22.0263C166.955 18.5945 166.147 15.4425 164.545 12.5704C162.942 9.69835 160.758 7.40067 158.007 5.72159C155.27 4.04252 152.264 3.18825 149.002 3.18825Z" fill="white"/>
<path d="M198 43.9279C194.228 43.9279 190.739 42.9558 187.534 40.9969C184.315 39.038 181.776 36.3868 179.919 33.0286C178.061 29.6705 177.125 26.003 177.125 22.0557C177.125 18.0937 178.061 14.441 179.919 11.0828C181.776 7.7247 184.315 5.0588 187.534 3.11461C190.753 1.15569 194.242 0.183594 198 0.183594C201.758 0.183594 205.261 1.15569 208.466 3.11461C211.685 5.07353 214.223 7.7247 216.081 11.0828C217.939 14.441 218.875 18.1084 218.875 22.0557C218.875 26.0178 217.939 29.6705 216.081 33.0286C214.223 36.3868 211.685 39.0527 208.466 40.9969C205.261 42.9558 201.772 43.9279 198 43.9279ZM198 3.18825C194.738 3.18825 191.732 4.02779 188.995 5.72159C186.244 7.4154 184.06 9.69835 182.429 12.5704C180.798 15.4425 179.99 18.5945 179.99 22.0263C179.99 25.4581 180.798 28.61 182.429 31.4821C184.06 34.3542 186.244 36.6519 188.995 38.331C191.746 40.0248 194.752 40.8643 198 40.8643C201.262 40.8643 204.254 40.0248 207.005 38.331C209.756 36.6372 211.94 34.3542 213.543 31.4821C215.145 28.61 215.953 25.4581 215.953 22.0263C215.953 18.5945 215.145 15.4425 213.543 12.5704C211.94 9.69835 209.756 7.40067 207.005 5.72159C204.268 4.04252 201.262 3.18825 198 3.18825Z" fill="white"/>
<path d="M260.001 43.4718H256.186L241.395 25.2082L228.064 44.1935V0.625977H230.915V34.9734L254.995 0.625977H258.611L243.125 22.6307L260.001 43.4718Z" fill="white"/>
<path d="M69.4463 43.472H49.1387L50.4575 40.541H68.2125L69.4463 43.472Z" fill="white"/>
</svg>
