<svg width="730" height="121" viewBox="0 0 730 121" fill="none" xmlns="http://www.w3.org/2000/svg">
<g clip-path="url(#clip0_480_1361)">
<path d="M8.00316 23.521V119.02H0V0L80.1909 97.3173V1.45491H88.1941V121L8.00316 23.521Z" fill="white"/>
<path d="M167.829 20.0858L122.239 119.02H113.32L167.869 0L219.352 119.02H210.632L197.612 89.1941L167.829 20.0858ZM194.029 81.0304L167.829 20.0858L194.029 81.0304Z" fill="white"/>
<path d="M252.675 23.521V119.02H244.672V0L324.863 97.3173V1.45491H332.866V121L252.675 23.521Z" fill="white"/>
<path d="M418.356 120.272C407.765 120.272 397.97 117.605 388.972 112.23C379.933 106.855 372.806 99.5802 367.59 90.3658C362.374 81.1513 359.746 71.0882 359.746 60.2572C359.746 49.3858 362.374 39.3631 367.59 30.1487C372.806 20.9342 379.933 13.6193 388.972 8.28461C398.01 2.90952 407.805 0.242188 418.356 0.242188C428.908 0.242188 438.742 2.90952 447.741 8.28461C456.779 13.6597 463.907 20.9342 469.123 30.1487C474.339 39.3631 476.967 49.4262 476.967 60.2572C476.967 71.1286 474.339 81.1513 469.123 90.3658C463.907 99.5802 456.779 106.895 447.741 112.23C438.742 117.605 428.948 120.272 418.356 120.272ZM418.356 8.48668C409.198 8.48668 400.757 10.7903 393.073 15.4379C385.348 20.0855 379.216 26.3497 374.638 34.2305C370.059 42.1113 367.789 50.7599 367.789 60.1764C367.789 69.5929 370.059 78.2415 374.638 86.1223C379.216 94.003 385.348 100.308 393.073 104.915C400.797 109.562 409.238 111.866 418.356 111.866C427.514 111.866 435.915 109.562 443.64 104.915C451.364 100.267 457.496 94.003 461.995 86.1223C466.495 78.2415 468.764 69.5929 468.764 60.1764C468.764 50.7599 466.495 42.1113 461.995 34.2305C457.496 26.3497 451.364 20.0451 443.64 15.4379C435.955 10.8307 427.514 8.48668 418.356 8.48668Z" fill="white"/>
<path d="M555.923 120.272C545.331 120.272 535.537 117.605 526.538 112.23C517.5 106.855 510.372 99.5802 505.156 90.3658C499.94 81.1513 497.312 71.0882 497.312 60.2572C497.312 49.3858 499.94 39.3631 505.156 30.1487C510.372 20.9342 517.5 13.6193 526.538 8.28461C535.576 2.90952 545.371 0.242188 555.923 0.242188C566.474 0.242188 576.309 2.90952 585.307 8.28461C594.346 13.6597 601.473 20.9342 606.689 30.1487C611.905 39.3631 614.533 49.4262 614.533 60.2572C614.533 71.1286 611.905 81.1513 606.689 90.3658C601.473 99.5802 594.346 106.895 585.307 112.23C576.309 117.605 566.514 120.272 555.923 120.272ZM555.923 8.48668C546.765 8.48668 538.324 10.7903 530.639 15.4379C522.915 20.0855 516.783 26.3497 512.204 34.2305C507.625 42.1113 505.355 50.7599 505.355 60.1764C505.355 69.5929 507.625 78.2415 512.204 86.1223C516.783 94.003 522.915 100.308 530.639 104.915C538.364 109.562 546.805 111.866 555.923 111.866C565.081 111.866 573.482 109.562 581.206 104.915C588.931 100.267 595.063 94.003 599.562 86.1223C604.061 78.2415 606.331 69.5929 606.331 60.1764C606.331 50.7599 604.061 42.1113 599.562 34.2305C595.063 26.3497 588.931 20.0451 581.206 15.4379C573.522 10.8307 565.081 8.48668 555.923 8.48668Z" fill="white"/>
<path d="M729.999 119.02H719.289L677.76 68.9063L640.332 121V1.45508H648.335V95.7009L715.944 1.45508H726.097L682.617 61.8338L729.999 119.02Z" fill="white"/>
<path d="M194.982 119.02H137.965L141.668 110.978H191.518L194.982 119.02Z" fill="#48A4C7"/>
</g>
<defs>
<clipPath id="clip0_480_1361">
<rect width="730" height="121" fill="white"/>
</clipPath>
</defs>
</svg>
