<svg width="1687" height="278" viewBox="0 0 1687 278" fill="none" xmlns="http://www.w3.org/2000/svg">
<g clip-path="url(#clip0_2052_1234)">
<path d="M18.4913 53.9105V272.794H0V0L185.281 223.052V3.33467H203.773V277.333L18.4913 53.9105Z" fill="#222222"/>
<path d="M387.766 46.037L282.43 272.794H261.822L387.858 0L506.809 272.794H486.662L456.579 204.434L387.766 46.037ZM448.299 185.723L387.766 46.037L448.299 185.723Z" fill="#222222"/>
<path d="M583.812 53.9105V272.794H565.32V0L750.602 223.052V3.33467H769.093V277.333L583.812 53.9105Z" fill="#222222"/>
<path d="M966.608 275.667C942.137 275.667 919.506 269.553 898.715 257.234C877.832 244.914 861.364 228.24 849.313 207.121C837.261 186.001 831.189 162.937 831.189 138.112C831.189 113.194 837.261 90.2222 849.313 69.1026C861.364 47.9831 877.832 31.2171 898.715 18.99C919.598 6.6702 942.229 0.556641 966.608 0.556641C990.988 0.556641 1013.71 6.6702 1034.5 18.99C1055.39 31.3097 1071.85 47.9831 1083.9 69.1026C1095.96 90.2222 1102.03 113.287 1102.03 138.112C1102.03 163.029 1095.96 186.001 1083.9 207.121C1071.85 228.24 1055.39 245.006 1034.5 257.234C1013.71 269.553 991.08 275.667 966.608 275.667ZM966.608 19.4531C945.449 19.4531 925.946 24.733 908.191 35.3854C890.343 46.0378 876.176 60.3954 865.596 78.4582C855.017 96.521 849.773 116.344 849.773 137.926C849.773 159.509 855.017 179.332 865.596 197.395C876.176 215.458 890.343 229.908 908.191 240.468C926.038 251.12 945.541 256.4 966.608 256.4C987.768 256.4 1007.18 251.12 1025.03 240.468C1042.87 229.815 1057.04 215.458 1067.44 197.395C1077.83 179.332 1083.08 159.509 1083.08 137.926C1083.08 116.344 1077.83 96.521 1067.44 78.4582C1057.04 60.3954 1042.87 45.9452 1025.03 35.3854C1007.27 24.8256 987.768 19.4531 966.608 19.4531Z" fill="#222222"/>
<path d="M1284.46 275.667C1259.99 275.667 1237.36 269.553 1216.56 257.234C1195.68 244.914 1179.21 228.24 1167.16 207.121C1155.11 186.001 1149.04 162.937 1149.04 138.112C1149.04 113.194 1155.11 90.2222 1167.16 69.1026C1179.21 47.9831 1195.68 31.2171 1216.56 18.99C1237.45 6.6702 1260.08 0.556641 1284.46 0.556641C1308.84 0.556641 1331.56 6.6702 1352.35 18.99C1373.23 31.3097 1389.7 47.9831 1401.75 69.1026C1413.81 90.2222 1419.88 113.287 1419.88 138.112C1419.88 163.029 1413.81 186.001 1401.75 207.121C1389.7 228.24 1373.23 245.006 1352.35 257.234C1331.56 269.553 1308.93 275.667 1284.46 275.667ZM1284.46 19.4531C1263.3 19.4531 1243.8 24.733 1226.04 35.3854C1208.19 46.0378 1194.03 60.3954 1183.45 78.4582C1172.87 96.521 1167.62 116.344 1167.62 137.926C1167.62 159.509 1172.87 179.332 1183.45 197.395C1194.03 215.458 1208.19 229.908 1226.04 240.468C1243.89 251.12 1263.39 256.4 1284.46 256.4C1305.62 256.4 1325.03 251.12 1342.88 240.468C1360.72 229.815 1374.89 215.458 1385.29 197.395C1395.68 179.332 1400.93 159.509 1400.93 137.926C1400.93 116.344 1395.68 96.521 1385.29 78.4582C1374.89 60.3954 1360.72 45.9452 1342.88 35.3854C1325.12 24.8256 1305.62 19.4531 1284.46 19.4531Z" fill="#222222"/>
<path d="M1686.67 272.794H1661.92L1565.97 157.933L1479.49 277.333V3.33398H1497.98V219.346L1654.19 3.33398H1677.65L1577.19 141.723L1686.67 272.794Z" fill="#222222"/>
<path d="M450.507 272.795H318.768L327.323 254.361H442.503L450.507 272.795Z" fill="#222222"/>
</g>
<defs>
<clipPath id="clip0_2052_1234">
<rect width="1686.67" height="277.333" fill="white"/>
</clipPath>
</defs>
</svg>
