<svg width="260" height="45" fill="none" xmlns="http://www.w3.org/2000/svg"><path d="M2.85 8.668v34.804H0V.096l28.561 35.467V.626h2.85v43.568L2.852 8.667Zm56.924-1.252L43.536 43.472h-3.177L59.788.096l18.336 43.376H75.02l-4.638-10.87L59.774 7.416Zm9.33 22.21-9.33-22.21 9.33 22.21ZM89.993 8.668v34.804h-2.85V.096l28.561 35.467V.626h2.85v43.568L89.993 8.667Zm59.009 35.26c-3.772 0-7.261-.972-10.466-2.931-3.219-1.959-5.758-4.61-7.615-7.968-1.858-3.359-2.794-7.026-2.794-10.973 0-3.962.936-7.615 2.794-10.973 1.857-3.358 4.396-6.024 7.615-7.968 3.219-1.96 6.708-2.931 10.466-2.931 3.758 0 7.261.972 10.466 2.93 3.219 1.96 5.757 4.61 7.615 7.969 1.858 3.358 2.794 7.025 2.794 10.973 0 3.962-.936 7.614-2.794 10.973-1.858 3.358-4.396 6.024-7.615 7.968-3.205 1.959-6.694 2.93-10.466 2.93Zm0-40.74c-3.262 0-6.268.84-9.005 2.534-2.751 1.693-4.935 3.976-6.566 6.848-1.631 2.873-2.439 6.024-2.439 9.456 0 3.432.808 6.584 2.439 9.456s3.815 5.17 6.566 6.849c2.751 1.694 5.757 2.533 9.005 2.533 3.262 0 6.254-.84 9.005-2.533 2.751-1.694 4.935-3.977 6.538-6.849 1.602-2.872 2.41-6.024 2.41-9.456 0-3.431-.808-6.583-2.41-9.456-1.603-2.872-3.787-5.17-6.538-6.848-2.737-1.68-5.743-2.534-9.005-2.534ZM198 43.928c-3.772 0-7.261-.972-10.466-2.931-3.219-1.959-5.758-4.61-7.615-7.968-1.858-3.359-2.794-7.026-2.794-10.973 0-3.962.936-7.615 2.794-10.973 1.857-3.358 4.396-6.024 7.615-7.968C190.753 1.155 194.242.184 198 .184c3.758 0 7.261.972 10.466 2.93 3.219 1.96 5.757 4.61 7.615 7.969 1.858 3.358 2.794 7.025 2.794 10.973 0 3.962-.936 7.614-2.794 10.973-1.858 3.358-4.396 6.024-7.615 7.968-3.205 1.959-6.694 2.93-10.466 2.93Zm0-40.74c-3.262 0-6.268.84-9.005 2.534-2.751 1.693-4.935 3.976-6.566 6.848-1.631 2.873-2.439 6.024-2.439 9.456 0 3.432.808 6.584 2.439 9.456s3.815 5.17 6.566 6.849c2.751 1.694 5.757 2.533 9.005 2.533 3.262 0 6.254-.84 9.005-2.533 2.751-1.694 4.935-3.977 6.538-6.849 1.602-2.872 2.41-6.024 2.41-9.456 0-3.431-.808-6.583-2.41-9.456-1.603-2.872-3.787-5.17-6.538-6.848-2.737-1.68-5.743-2.534-9.005-2.534Zm62.001 40.284h-3.815l-14.791-18.264-13.331 18.986V.626h2.851v34.347L254.995.626h3.616l-15.486 22.005 16.876 20.84Z" fill="#fff"/><path d="M69.446 43.472H49.14l1.319-2.931h17.755l1.233 2.931Z" fill="#fff"/></svg>