<?xml version="1.0" encoding="UTF-8"?>
<svg id="Capa_1" data-name="Capa 1" xmlns="http://www.w3.org/2000/svg" version="1.1" viewBox="0 0 16 16">
  <defs>
    <style>
      .cls-1 {
        fill: #000;
      }

      .cls-1, .cls-2 {
        stroke-width: 0px;
      }

      .cls-2 {
        fill: #fff;
      }
    </style>
  </defs>
  <circle class="cls-2" cx="8" cy="8" r="8"/>
  <path class="cls-1" d="M8.1,11.4h-.2c0-.2-.1-.5-.3-.8-.2-.3-.5-.7-.9-.9-.3-.3-.6-.4-.8-.4v-.2c.2,0,.5.1.9.4.4.3.7.6.9,1,0,0,.1.2.2.3v-6.1h.2v6.1c0,0,0-.2.2-.3.2-.4.6-.7.9-1,.4-.3.7-.4.9-.4v.2c-.2,0-.4.1-.8.4-.4.3-.7.6-.9.9-.2.3-.3.6-.3.8Z"/>
</svg>