<svg width="16" height="16" viewBox="0 0 16 16" fill="none" xmlns="http://www.w3.org/2000/svg">
<path d="M11 12.3333H10.3333C10.3333 11.84 10.68 11.1667 11.3867 10.2733C12.0733 9.41333 12.8667 8.7 13.74 8.16667C13.8333 8.10667 13.9267 8.05333 14.02 8H0V7.33333H14.0267C13.9333 7.28 13.84 7.22667 13.7467 7.16667C12.8667 6.63333 12.08 5.92 11.3933 5.06C10.68 4.16667 10.34 3.49333 10.34 3H11.0067C11.0067 3.15333 11.0933 3.61333 11.92 4.64667C12.56 5.44667 13.2933 6.10667 14.1 6.6C14.8867 7.08 15.5467 7.33333 16.0067 7.33333V8C15.54 8 14.88 8.25333 14.1 8.73333C13.2933 9.22667 12.56 9.88667 11.92 10.6867C11.1 11.72 11.0067 12.18 11.0067 12.3333H11Z" fill="white"/>
</svg>
