<svg width="16" height="16" viewBox="0 0 16 16" fill="none" xmlns="http://www.w3.org/2000/svg">
<path opacity="0.3" d="M7.99995 15.7948C3.69636 15.7948 0.205078 12.3035 0.205078 7.99995C0.205078 3.69636 3.69636 0.205078 7.99995 0.205078C12.3035 0.205078 15.7948 3.69636 15.7948 7.99995C15.7948 12.3035 12.3035 15.7948 7.99995 15.7948Z" fill="white"/>
<path d="M8 16C3.58974 16 0 12.4103 0 8C0 3.58974 3.58974 0 8 0C12.4103 0 16 3.58974 16 8C16 12.4103 12.4103 16 8 16ZM8 0.410256C3.81538 0.410256 0.410256 3.81538 0.410256 8C0.410256 12.1846 3.81538 15.5897 8 15.5897C12.1846 15.5897 15.5897 12.1846 15.5897 8C15.5897 3.81538 12.1846 0.410256 8 0.410256Z" fill="white"/>
<path d="M9.43622 10.8705H9.02597C9.02597 10.567 9.2393 10.1526 9.67417 9.60285C10.0967 9.07362 10.5849 8.63465 11.1224 8.30644C11.1798 8.26952 11.2372 8.2367 11.2947 8.20388H2.66699V7.79362H11.2988C11.2414 7.7608 11.1839 7.72798 11.1265 7.69106C10.5849 7.36285 10.1008 6.92388 9.67827 6.39465C9.2393 5.8449 9.03007 5.43054 9.03007 5.12695H9.44033C9.44033 5.22131 9.49366 5.50439 10.0024 6.14029C10.3962 6.63259 10.8475 7.03875 11.3439 7.34234C11.828 7.63772 12.2342 7.79362 12.5172 7.79362V8.20388C12.2301 8.20388 11.8239 8.35977 11.3439 8.65516C10.8475 8.95875 10.3962 9.3649 10.0024 9.85721C9.49776 10.4931 9.44033 10.7762 9.44033 10.8705H9.43622Z" fill="white"/>
</svg>
